<svg width="32" height="21" viewBox="0 0 32 21" xmlns="http://www.w3.org/2000/svg"><title>Quote icon</title><path d="M8.997 7.314c1.842.053 3.273.627 4.411 1.845 1.211 1.227 1.746 2.827 1.69 4.8-.058 1.972-.769 3.595-2.257 4.87a7.397 7.397 0 0 1-5.193 1.742c-2.302-.08-4.119-.928-5.58-2.489a8.322 8.322 0 0 1-2.057-5.927c.142-4.21 1.626-7.323 4.524-9.412A14.942 14.942 0 0 1 11.813 0v1.26c-4.741.692-7.2 3.19-7.338 7.426.956-1.024 2.483-1.438 4.522-1.372zm16.445 0c1.843.053 3.273.627 4.419 1.85 1.211 1.227 1.753 2.827 1.689 4.8-.064 1.972-.775 3.595-2.263 4.866a7.397 7.397 0 0 1-5.193 1.741c-2.302-.08-4.12-.928-5.568-2.489a8.322 8.322 0 0 1-2.057-5.927c.13-4.21 1.613-7.323 4.512-9.412A14.933 14.933 0 0 1 28.258 0v1.26c-4.74.692-7.2 3.19-7.337 7.426.956-1.024 2.482-1.438 4.521-1.372z" fill="#30A9D7" fill-rule="nonzero"/></svg>