<svg width="68" height="68" color="#000" viewBox="0 0 68 68" xmlns="http://www.w3.org/2000/svg"><title>Diamond icon</title><g fill="none" fill-rule="evenodd"><path fill="#000" d="M.059 34L34 .059 67.941 34 34 67.941z"/><path d="M27.214 31.314c1.842.053 3.273.627 4.411 1.845 1.212 1.227 1.746 2.827 1.69 4.8-.058 1.972-.769 3.595-2.257 4.87a7.397 7.397 0 0 1-5.193 1.742c-2.302-.08-4.119-.928-5.58-2.489a8.322 8.322 0 0 1-2.056-5.927c.141-4.21 1.625-7.323 4.523-9.412A14.942 14.942 0 0 1 30.03 24v1.26c-4.74.692-7.2 3.19-7.337 7.426.955-1.024 2.482-1.438 4.52-1.372zm16.445 0c1.843.053 3.274.627 4.419 1.85 1.211 1.227 1.753 2.827 1.689 4.8-.064 1.972-.775 3.595-2.263 4.866a7.397 7.397 0 0 1-5.193 1.741c-2.302-.08-4.119-.928-5.568-2.489a8.322 8.322 0 0 1-2.057-5.927c.13-4.21 1.613-7.323 4.512-9.412A14.933 14.933 0 0 1 46.475 24v1.26c-4.74.692-7.2 3.19-7.337 7.426.956-1.024 2.483-1.438 4.521-1.372z" fill="#FFF" fill-rule="nonzero"/></g></svg>